<?xml version="1.0" encoding="iso-8859-1"?>
<!-- Generator: Adobe Illustrator 16.0.0, SVG Export Plug-In . SVG Version: 6.00 Build 0)  -->
<!DOCTYPE svg PUBLIC "-//W3C//DTD SVG 1.1//EN" "http://www.w3.org/Graphics/SVG/1.1/DTD/svg11.dtd">
<svg version="1.1" id="Capa_1" xmlns="http://www.w3.org/2000/svg" xmlns:xlink="http://www.w3.org/1999/xlink" x="0px" y="0px"
	 width="42.692px" height="42.691px" viewBox="0 0 42.692 42.691" style="enable-background:new 0 0 42.692 42.691;"
	 xml:space="preserve">
<g>
	<path d="M28.69,32.781l1.549-1.549l-1.504-1.506l0.879-0.88c0.041-0.04,0.076-0.077,0.115-0.116l1.506,1.506l1.547-1.547
		l-1.635-1.635c0.211-0.311,0.377-0.604,0.494-0.876c0.318-0.748,0.42-1.474,0.307-2.175c-0.117-0.7-0.418-1.297-0.9-1.78
		c-0.406-0.407-0.871-0.678-1.396-0.816c-0.52-0.138-1.039-0.134-1.549,0.009c-0.361,0.099-0.809,0.305-1.346,0.625
		c0.266-0.535,0.412-1.027,0.449-1.479c0.037-0.452-0.018-0.878-0.158-1.278c-0.145-0.4-0.363-0.753-0.664-1.055
		c-0.416-0.415-0.92-0.673-1.514-0.776c-0.592-0.103-1.209-0.018-1.848,0.248c-0.25,0.105-0.514,0.261-0.786,0.444l-1.613-1.614
		l-1.547,1.548l1.504,1.506l-0.994,0.995l-1.506-1.505l-1.549,1.55l1.506,1.505l-2.364,2.363l1.265,1.267l0.36-0.36
		c0.239-0.24,0.426-0.383,0.555-0.424c0.13-0.043,0.247-0.043,0.358-0.004c0.107,0.041,0.298,0.194,0.568,0.466l5.104,5.103
		c0.268,0.268,0.42,0.457,0.463,0.566c0.041,0.112,0.041,0.229-0.004,0.358c-0.043,0.126-0.188,0.312-0.428,0.552l-0.359,0.36
		l1.266,1.265l2.365-2.363L28.69,32.781z M23.727,23.85l-1.004,1.002l-2.229-2.229l1.002-1.002c0.586-0.585,1.028-0.956,1.329-1.111
		c0.301-0.155,0.596-0.208,0.887-0.158c0.291,0.05,0.555,0.197,0.795,0.438c0.23,0.232,0.373,0.499,0.426,0.804
		c0.049,0.304-0.008,0.626-0.172,0.964C24.594,22.893,24.249,23.324,23.727,23.85z M26.571,28.638
		c-0.062-0.032-0.238-0.187-0.521-0.461l-1.979-1.979l1.186-1.185c0.518-0.519,0.953-0.856,1.303-1.015
		c0.348-0.156,0.68-0.203,0.994-0.144c0.314,0.062,0.605,0.228,0.879,0.499c0.318,0.319,0.504,0.682,0.551,1.088
		c0.049,0.405-0.02,0.773-0.203,1.101c-0.182,0.327-0.467,0.686-0.854,1.073l-0.668,0.668c-0.223,0.222-0.371,0.347-0.445,0.371
		C26.735,28.681,26.655,28.676,26.571,28.638z M42.692,26.25L24.838,8.396l2.74-2.74L21.921,0L0,21.92l5.658,5.656l2.739-2.739
		L26.25,42.691L42.692,26.25z M23.424,9.81l16.439,16.438L26.25,39.861L9.812,23.422L23.424,9.81z"/>
</g>
<g>
</g>
<g>
</g>
<g>
</g>
<g>
</g>
<g>
</g>
<g>
</g>
<g>
</g>
<g>
</g>
<g>
</g>
<g>
</g>
<g>
</g>
<g>
</g>
<g>
</g>
<g>
</g>
<g>
</g>
</svg>
