<?xml version="1.0" encoding="iso-8859-1"?>
<!-- Generator: Adobe Illustrator 19.0.0, SVG Export Plug-In . SVG Version: 6.00 Build 0)  -->
<svg version="1.1" id="Capa_1" xmlns="http://www.w3.org/2000/svg" xmlns:xlink="http://www.w3.org/1999/xlink" x="0px" y="0px"
	 viewBox="0 0 512 512" style="enable-background:new 0 0 512 512;" xml:space="preserve">
<g>
	<g>
		<g>
			<rect x="224" y="400" width="64" height="32"/>
			<rect x="208" y="480" width="32" height="32"/>
			<rect x="272" y="480" width="32" height="32"/>
			<path d="M336,512h83.52l-38.4-192H320v-32h96v-32H96v32h96v32h-61.104L92.48,512H176v-32h-44.48l25.6-128h197.776l25.6,128H336
				V512z M288,320h-64v-32h64V320z"/>
			<path d="M208,224h32v-32h32v32h32v-44.48c19.599-17.321,21.445-47.251,4.124-66.85c-0.199-0.225-0.4-0.449-0.604-0.67
				c17.691-19.266,16.415-49.225-2.85-66.917c-0.221-0.203-0.445-0.404-0.67-0.604V0h-32v32h-32V0h-32v32h-16v160h16V224z M224,64
				h48c8.837,0,16,7.163,16,16s-7.163,16-16,16h-48V64z M224,128h48c8.837,0,16,7.163,16,16s-7.163,16-16,16h-48V128z"/>
		</g>
	</g>
</g>
<g>
</g>
<g>
</g>
<g>
</g>
<g>
</g>
<g>
</g>
<g>
</g>
<g>
</g>
<g>
</g>
<g>
</g>
<g>
</g>
<g>
</g>
<g>
</g>
<g>
</g>
<g>
</g>
<g>
</g>
</svg>
