<svg height="512pt" viewBox="-44 0 512 512.01741" width="512pt" xmlns="http://www.w3.org/2000/svg"><path d="m364.453125 190.914062c-.933594 0-1.859375-.152343-2.742187-.449218-1.3125-.417969-31.96875-11.117188-31.96875-51.617188.296874-9.703125 1.164062-19.382812 2.601562-28.984375 3.375-26.902343 7.195312-57.273437-8.53125-75.125-10.222656-11.535156-28.644531-17.382812-54.816406-17.382812-85.800782 0-86.78125 66.59375-86.78125 69.425781 0 4.792969-3.882813 8.675781-8.675782 8.675781-4.792968 0-8.679687-3.882812-8.679687-8.675781 0-.871094 1.199219-86.78125 104.136719-86.78125 31.804687 0 53.976562 7.601562 67.78125 23.257812 20.914062 23.691407 16.375 59.773438 12.742187 88.765626-1.320312 8.886718-2.128906 17.84375-2.421875 26.824218 0 28.132813 19.898438 35.09375 20.097656 35.164063 4.027344 1.351562 6.484376 5.421875 5.804688 9.613281-.679688 4.195312-4.296875 7.28125-8.546875 7.289062zm0 0" fill="#fccc88"/><path d="m225.605469 149.148438v-10.300782c0-9.585937-7.769531-17.355468-17.355469-17.355468h-69.425781c-9.582031 0-17.355469 7.769531-17.355469 17.355468v10.300782c.046875 13.453124-7.75 25.699218-19.957031 31.351562-74.269531 33.90625-114.871094 114.988281-97.523438 194.765625 17.347657 79.78125 87.953125 136.679687 169.597657 136.679687 81.640624 0 152.246093-56.898437 169.59375-136.679687 17.351562-79.777344-23.25-160.859375-97.519532-194.765625-12.234375-5.636719-20.066406-17.878906-20.054687-31.351562zm0 0" fill="#445c71"/><path d="m347.097656 338.441406c.164063 73.621094-46.234375 139.296875-115.679687 163.742188-69.441407 24.445312-146.75 2.308594-192.734375-55.179688 28.179687 23.160156 63.023437 36.71875 99.449218 38.703125 68.539063 3.746094 132.84375-33.277343 164.015626-94.4375 31.171874-61.160156 23.34375-134.945312-19.960938-188.207031 41.070312 32.929688 64.953125 82.738281 64.910156 135.378906zm0 0" fill="#394f63"/><path d="m173.539062 86.78125c14.375 0 26.03125 11.652344 26.03125 26.03125v8.679688h-52.066406v-8.679688c0-14.378906 11.65625-26.03125 26.035156-26.03125zm0 0" fill="#394f63"/><g fill="#f4cd1e"><path d="m416.519531 216.949219c-1.34375 0-2.667969-.3125-3.871093-.910157l-17.355469-8.679687c-4.289063-2.140625-6.027344-7.355469-3.886719-11.644531 2.144531-4.289063 7.355469-6.03125 11.644531-3.886719l17.359375 8.675781c3.605469 1.796875 5.5 5.84375 4.574219 9.765625-.929687 3.921875-4.433594 6.6875-8.464844 6.679688zm0 0"/><path d="m399.164062 173.558594c-3.507812 0-6.671874-2.113282-8.015624-5.355469s-.601563-6.976563 1.882812-9.457031l8.675781-8.679688c3.40625-3.285156 8.816407-3.238281 12.164063.105469 3.347656 3.347656 3.394531 8.761719.105468 12.167969l-8.675781 8.675781c-1.628906 1.628906-3.835937 2.542969-6.136719 2.542969zm0 0"/><path d="m381.808594 251.660156c-4.792969 0-8.679688-3.882812-8.679688-8.675781v-17.355469c0-4.792968 3.886719-8.679687 8.679688-8.679687 4.792968 0 8.679687 3.886719 8.679687 8.679687v17.355469c0 4.792969-3.886719 8.675781-8.679687 8.675781zm0 0"/></g><path d="m144.492188 219.539062c-18.636719-18.640624-53.863282-13.632812-78.675782 11.179688-24.816406 24.8125-29.820312 60.039062-11.183594 78.679688 18.640626 18.640624 53.867188 13.632812 78.679688-11.179688 24.816406-24.816406 29.820312-60.039062 11.179688-78.679688zm0 0" fill="#4f6f7f"/></svg>