<svg height="496pt" viewBox="0 -16 496 496" width="496pt" xmlns="http://www.w3.org/2000/svg"><path d="m224 416.003906v16c105.863281 0 192-86.136718 192-192h-16c0 97.046875-78.953125 176-176 176zm0 0"/><path d="m296 104.003906c0-30.882812-25.128906-56-56-56s-56 25.117188-56 56c0 30.878906 25.128906 56 56 56s56-25.121094 56-56zm-96 0c0-22.058594 17.945312-40 40-40s40 17.941406 40 40c0 22.054688-17.945312 40-40 40s-40-17.945312-40-40zm0 0"/><path d="m472 .00390625h-2.742188c-28.632812 0-55.625 10.29296875-76.984374 28.95703175l-26.617188-26.613282c-3.128906-3.128906-8.183594-3.128906-11.3125 0l-35.007812 35.007813c-28.953126-13.671875-61.257813-21.351563-95.335938-21.351563-123.511719 0-224 100.484375-224 224 0 123.511719 100.488281 224 224 224s224-100.488281 224-224c0-34.082031-7.679688-66.386718-21.351562-95.339844l35.007812-35.007812c3.128906-3.125 3.128906-8.183594 0-11.308594l-34.136719-34.136718c12.449219-10.472657 28.015625-16.207032 44.480469-16.207032 13.230469 0 24-10.769531 24-24 0-13.234375-10.769531-23.99999975-24-23.99999975zm-248 447.99999975c-114.695312 0-208-93.304687-208-208 0-114.691406 93.304688-208 208-208s208 93.308594 208 208c0 114.695313-93.304688 208-208 208zm194.894531-318.210937c-20.039062-35.304688-49.382812-64.640625-84.6875-84.6875l25.792969-25.792969 84.6875 84.691406zm53.105469-97.789063c-20.742188 0-40.296875 7.421875-55.792969 20.894532l-12.621093-12.625c18.308593-15.664063 41.308593-24.269532 65.671874-24.269532h2.742188c4.414062 0 8 3.589844 8 8 0 4.40625-3.585938 8-8 8zm0 0"/></svg>