<?xml version="1.0" encoding="iso-8859-1"?>
<!-- Generator: Adobe Illustrator 19.0.0, SVG Export Plug-In . SVG Version: 6.00 Build 0)  -->
<svg version="1.1" id="Capa_1" xmlns="http://www.w3.org/2000/svg" xmlns:xlink="http://www.w3.org/1999/xlink" x="0px" y="0px"
	 viewBox="0 0 512 512" style="enable-background:new 0 0 512 512;" xml:space="preserve">
<g>
	<g>
		<g>
			<path d="M481.527,83.149c-1.205-4.55-5.867-7.264-10.419-6.067C325.495,115.43,267.162,19.627,259.78,6.118
				c-0.227-0.728-0.546-1.425-0.947-2.074c-1.697-2.366-4.431-3.769-7.343-3.769c-2.912,0-5.646,1.403-7.343,3.769
				c-0.482,0.793-0.836,1.657-1.05,2.56c-8.431,15.104-67.063,108.356-211.063,70.477c-4.552-1.197-9.214,1.517-10.419,6.067
				c-0.785,2.97-75.093,298.394,226.21,427.93c1.215,0.603,2.552,0.918,3.908,0.922c1.662-0.001,3.287-0.488,4.676-1.399
				C556.433,380.826,482.313,86.118,481.527,83.149z M251.571,494.071C-8.619,380.339,26.18,143.642,36.224,95.71
				c128.922,30.14,194.27-41.096,215.347-70.963c21.069,29.867,86.468,101.12,215.347,70.929
				C476.962,143.616,511.761,380.314,251.571,494.071z"/>
			<path d="M451.031,118.987c-1.825-1.397-4.136-2-6.41-1.671c-12.628,1.858-25.372,2.807-38.135,2.842
				c-4.713,0-8.533,3.82-8.533,8.533s3.821,8.533,8.533,8.533c10.631-0.019,21.253-0.646,31.812-1.877
				c6.938,73.438-1.877,233.131-186.735,321.229c-17.538-8.293-34.471-17.811-50.671-28.484c-2.539-1.793-5.852-2.064-8.648-0.707
				c-2.796,1.357-4.634,4.127-4.796,7.231c-0.162,3.104,1.376,6.051,4.015,7.692c18.023,11.881,36.912,22.392,56.508,31.445
				c2.283,1.063,4.919,1.063,7.202,0c206.123-96.009,207.94-276.062,199.142-349.013
				C454.04,122.459,452.856,120.384,451.031,118.987z"/>
			<path d="M70.588,237.798c-6.751-33.691-8.608-68.179-5.513-102.4c10.481,1.214,21.022,1.833,31.573,1.852
				c57.545,1.173,113.224-20.434,154.914-60.117c23.494,22.58,51.877,39.441,82.944,49.271c2.922,0.991,6.151,0.328,8.446-1.735
				c2.295-2.063,3.297-5.204,2.622-8.214c-0.675-3.011-2.923-5.422-5.879-6.307c-31.134-9.888-59.297-27.414-81.92-50.978
				c-3.413-3.328-8.857-3.328-12.271,0c-38.967,40.119-92.873,62.209-148.787,60.971c-12.7-0.034-25.382-0.975-37.948-2.816
				c-2.282-0.329-4.601,0.281-6.427,1.689c-1.826,1.408-3.005,3.495-3.267,5.786c-4.451,38.823-2.81,78.104,4.864,116.42
				c10.825,55.543,36.873,106.985,75.238,148.582c1.616,1.743,3.886,2.733,6.263,2.731c3.394,0.003,6.467-2.007,7.826-5.117
				c1.359-3.11,0.745-6.73-1.563-9.219C105.439,338.897,80.816,290.287,70.588,237.798z"/>
			<path d="M185.967,321.766c3.332,3.331,8.734,3.331,12.066,0l53.7-53.7l53.7,53.7c3.348,3.234,8.671,3.188,11.962-0.104
				c3.292-3.292,3.338-8.614,0.104-11.962l-53.7-53.7l53.7-53.7c3.234-3.348,3.188-8.671-0.104-11.962
				c-3.292-3.292-8.614-3.338-11.962-0.104l-53.7,53.7l-53.7-53.7c-3.348-3.234-8.671-3.188-11.962,0.104
				c-3.292,3.292-3.338,8.614-0.104,11.962l53.7,53.7l-53.7,53.7C182.636,313.033,182.636,318.434,185.967,321.766z"/>
			<path d="M260.267,349.867c0-4.713-3.82-8.533-8.533-8.533h-68.267c-4.713,0-8.533,3.82-8.533,8.533s3.82,8.533,8.533,8.533
				h68.267C256.446,358.4,260.267,354.58,260.267,349.867z"/>
			<path d="M285.867,358.4H320c4.713,0,8.533-3.82,8.533-8.533s-3.82-8.533-8.533-8.533h-34.133c-4.713,0-8.533,3.82-8.533,8.533
				S281.154,358.4,285.867,358.4z"/>
			<path d="M72.533,426.667H55.467V409.6c0-4.713-3.82-8.533-8.533-8.533s-8.533,3.82-8.533,8.533v17.067H21.333
				c-4.713,0-8.533,3.82-8.533,8.533s3.82,8.533,8.533,8.533H38.4V460.8c0,4.713,3.821,8.533,8.533,8.533s8.533-3.82,8.533-8.533
				v-17.067h17.067c4.713,0,8.533-3.82,8.533-8.533S77.246,426.667,72.533,426.667z"/>
			<path d="M490.667,469.333H473.6v-17.067c0-4.713-3.821-8.533-8.533-8.533c-4.713,0-8.533,3.821-8.533,8.533v17.067h-17.067
				c-4.713,0-8.533,3.82-8.533,8.533s3.82,8.533,8.533,8.533h17.067v17.067c0,4.713,3.821,8.533,8.533,8.533
				c4.713,0,8.533-3.82,8.533-8.533V486.4h17.067c4.713,0,8.533-3.82,8.533-8.533S495.38,469.333,490.667,469.333z"/>
			<path d="M422.4,34.133h8.533v8.533c0,4.713,3.82,8.533,8.533,8.533S448,47.38,448,42.667v-8.533h8.533
				c4.713,0,8.533-3.821,8.533-8.533s-3.82-8.533-8.533-8.533H448V8.533C448,3.82,444.18,0,439.467,0s-8.533,3.82-8.533,8.533v8.533
				H422.4c-4.713,0-8.533,3.82-8.533,8.533S417.687,34.133,422.4,34.133z"/>
		</g>
	</g>
</g>
<g>
</g>
<g>
</g>
<g>
</g>
<g>
</g>
<g>
</g>
<g>
</g>
<g>
</g>
<g>
</g>
<g>
</g>
<g>
</g>
<g>
</g>
<g>
</g>
<g>
</g>
<g>
</g>
<g>
</g>
</svg>
