<?xml version="1.0" encoding="iso-8859-1"?>
<!-- Generator: Adobe Illustrator 19.0.0, SVG Export Plug-In . SVG Version: 6.00 Build 0)  -->
<svg version="1.1" id="Capa_1" xmlns="http://www.w3.org/2000/svg" xmlns:xlink="http://www.w3.org/1999/xlink" x="0px" y="0px"
	 viewBox="0 0 512 512" style="enable-background:new 0 0 512 512;" xml:space="preserve">
<path style="fill:#F44336;" d="M256,0C114.848,0,0,114.848,0,256s114.848,256,256,256c12.672,0,24.928-0.992,37.504-3.104
	c3.296-0.544,6.304-2.08,8.672-4.48l202.24-202.24c2.368-2.368,3.936-5.408,4.48-8.672C511.008,280.928,512,268.672,512,256
	C512,114.848,397.152,0,256,0z"/>
<g>
	<path style="fill:#FAFAFA;" d="M176,160c-8.832,0-16,7.168-16,16v48h-32v-48c0-8.832-7.168-16-16-16s-16,7.168-16,16v128
		c0,8.832,7.168,16,16,16s16-7.168,16-16v-48h32v48c0,8.832,7.168,16,16,16s16-7.168,16-16V176C192,167.168,184.832,160,176,160z"/>
	<path style="fill:#FAFAFA;" d="M272,160c-26.464,0-48,21.536-48,48v64c0,26.464,21.536,48,48,48s48-21.536,48-48v-64
		C320,181.536,298.464,160,272,160z M288,272c0,8.832-7.168,16-16,16s-16-7.168-16-16v-64c0-8.832,7.168-16,16-16s16,7.168,16,16
		V272z"/>
	<path style="fill:#FAFAFA;" d="M432,160h-64c-8.832,0-16,7.168-16,16s7.168,16,16,16h16v112c0,8.832,7.168,16,16,16s16-7.168,16-16
		V192h16c8.832,0,16-7.168,16-16S440.832,160,432,160z"/>
</g>
<path style="fill:#E57373;" d="M508.544,286.592c-1.536-5.536-5.984-9.856-11.552-11.232c-61.952-15.296-128.32,3.2-173.376,48.256
	s-63.552,111.488-48.256,173.376c1.376,5.6,5.696,10.016,11.232,11.552c1.408,0.384,2.848,0.576,4.288,0.576
	c4.192,0,8.288-1.664,11.328-4.672l202.24-202.24C508.544,298.08,510.08,292.16,508.544,286.592z"/>
<g>
</g>
<g>
</g>
<g>
</g>
<g>
</g>
<g>
</g>
<g>
</g>
<g>
</g>
<g>
</g>
<g>
</g>
<g>
</g>
<g>
</g>
<g>
</g>
<g>
</g>
<g>
</g>
<g>
</g>
</svg>
